<svg width="840" height="840" viewBox="0 0 840 840" fill="none" xmlns="http://www.w3.org/2000/svg">
<g clip-path="url(#clip0_244_28)">
<path d="M80.334 568.835C162.534 651.035 295.805 651.036 378.006 568.835L463.881 482.96C479.307 467.535 504.317 467.534 519.742 482.96L545.58 508.798C548.118 511.336 552.234 511.336 554.772 508.798L580.61 482.96C596.036 467.535 621.046 467.534 636.472 482.96L671.836 518.325C673.055 519.544 674.709 520.229 676.433 520.229H715.743C717.467 520.229 719.121 519.544 720.34 518.325L814.069 424.596C816.608 422.057 816.608 417.942 814.069 415.403L720.34 321.674C719.121 320.455 717.467 319.77 715.743 319.77H436.92C422.878 319.769 410.576 312.347 403.252 301.605C395.945 290.89 387.532 280.689 378.006 271.163C295.806 188.963 162.534 188.963 80.334 271.163C-1.86675 353.364 -1.86595 486.635 80.334 568.835ZM182.473 460.849C159.911 483.41 123.333 483.409 100.772 460.849C78.2125 438.288 78.2115 401.711 100.772 379.149C123.334 356.588 159.912 356.589 182.473 379.149C205.033 401.71 205.033 438.287 182.473 460.849Z" fill="#1E407B" stroke="#EF5F37" stroke-width="33"/>
</g>
<defs>
<clipPath id="clip0_244_28">
<rect width="840" height="840" fill="white"/>
</clipPath>
</defs>
</svg>
