<svg width="840" height="840" viewBox="0 0 840 840" fill="none" xmlns="http://www.w3.org/2000/svg">
<g clip-path="url(#clip0_244_28)">
<path d="M69.0205 580.148C157.469 668.597 300.87 668.598 389.319 580.148L475.194 494.273C484.372 485.097 499.25 485.097 508.428 494.273L534.266 520.111C543.052 528.898 557.299 528.898 566.086 520.111L591.924 494.273C601.101 485.096 615.981 485.096 625.158 494.273L660.522 529.639C664.742 533.858 670.465 536.229 676.433 536.229H715.743C721.711 536.229 727.434 533.858 731.653 529.639L825.383 435.909C834.17 427.122 834.17 412.876 825.383 404.089L731.653 310.359C727.434 306.14 721.71 303.77 715.743 303.77H436.92C428.663 303.769 421.105 299.387 416.471 292.591C408.605 281.055 399.554 270.085 389.319 259.85C300.871 171.401 157.469 171.402 69.0205 259.85C-19.4287 348.299 -19.4278 491.7 69.0205 580.148ZM171.158 449.535C154.846 465.848 128.399 465.847 112.087 449.535C95.7748 433.223 95.7742 406.776 112.087 390.463C128.4 374.151 154.846 374.151 171.158 390.463C187.47 406.775 187.471 433.222 171.158 449.535Z" fill="#1E407B" stroke="black"/>
<ellipse cx="234.764" cy="420" rx="232.764" ry="233.589" fill="#EF5F37"/>
<circle cx="135.715" cy="420.413" r="57.7782" fill="#1E407B"/>
</g>
<defs>
<clipPath id="clip0_244_28">
<rect width="840" height="840" fill="white"/>
</clipPath>
</defs>
</svg>
